<svg xmlns="http://www.w3.org/2000/svg" viewBox="0 0 16 16">
	<rect x="6" y="9" width="1" height="1" />
	<rect x="9" y="6" width="1" height="1" />
	<rect x="6" y="7" width="1" height="1" />
	<rect x="7" y="6" width="1" height="1" />
	<path d="M2.5,8H1V1h7v1.5H6.5c-2.209,0-4,1.791-4,4V8z" />
	<path d="M9.5,4h-3C5.119,4,4,5.119,4,6.5v3C4,10.881,5.119,12,6.5,12c0-0.336,0.03-0.67,0.091-1H6.5c-0.176,0-0.343-0.036-0.5-0.092V10H5.092C5.036,9.843,5,9.676,5,9.5V9h1V8H5V7h1V6H5.092C5.243,5.576,5.576,5.243,6,5.092V6h1V5h1v1h1V5h0.5C9.676,5,9.843,5.036,10,5.092V6h0.908C10.964,6.157,11,6.323,11,6.499V6.59c0.324-0.06,0.654-0.09,0.984-0.09H12C12,5.119,10.881,4,9.5,4z" />
	<path d="M12,16c-2.209,0-4-1.791-4-4s1.791-4,4-4c2.208,0.003,3.997,1.792,4,4C16,14.209,14.209,16,12,16z M12,9c-1.656,0-3,1.344-3,3s1.344,3,3,3s3-1.344,3-3S13.656,9,12,9z" />
</svg>
