<svg xmlns="http://www.w3.org/2000/svg" viewBox="0 0 16 16">
	<path d="M3.193,11.638l0,0A5.984,5.984,0,0,1,1,7a6.007,6.007,0,0,1,6-6,5.984,5.984,0,0,1,4.638,2.192A7.035,7.035,0,0,0,10,3a7.008,7.008,0,0,0-7,7,7.033,7.033,0,0,0,.192,1.635Z" />
	<path d="M10,16a6.007,6.007,0,0,1-6-6,6.007,6.007,0,0,1,6-6,6.007,6.007,0,0,1,6,6A6.007,6.007,0,0,1,10,16Zm0-11a5.005,5.005,0,0,0-5,5,5.006,5.006,0,0,0,5,5,5.006,5.006,0,0,0,5-5A5.006,5.006,0,0,0,10,5Z" />
	<path d="M6,10a4,4,0,0,1,4-4,3.983,3.983,0,0,1,2,.535A5.5,5.5,0,0,1,6.535,12,3.98,3.98,0,0,1,6,10Z" />
</svg>
