<svg xmlns="http://www.w3.org/2000/svg" viewBox="0 0 16 16">
	<rect x="6" y="9" width="1" height="1" />
	<rect x="9" y="6" width="1" height="1" />
	<rect x="6" y="7" width="1" height="1" />
	<rect x="7" y="6" width="1" height="1" />
	<rect x="8" y="7" width="1" height="1" />
	<rect x="7" y="8" width="1" height="1" />
	<rect x="9" y="8" width="1" height="1" />
	<rect x="8" y="9" width="1" height="1" />
	<path d="M2,8H1V1h7v1H6.5C4.016,2.003,2.003,4.016,2,6.5V8z" />
	<path d="M9.5,4h-3C5.119,4,4,5.119,4,6.5v3C4,10.881,5.119,12,6.5,12h3c1.381,0,2.5-1.119,2.5-2.5v-3C12,5.119,10.881,4,9.5,4z M11,7h-1v1h1v1h-1v1h0.908c-0.151,0.424-0.484,0.758-0.908,0.908V10H9v1H8v-1H7v1H6.5c-0.176,0-0.343-0.036-0.5-0.092V10H5.092C5.036,9.843,5,9.676,5,9.5V9h1V8H5V7h1V6H5.092C5.243,5.576,5.576,5.243,6,5.092V6h1V5h1v1h1V5h0.5C9.676,5,9.843,5.036,10,5.092V6h0.908C10.964,6.157,11,6.324,11,6.5V7z" />
	<path d="M12,16c-1.631,0.006-3.102-0.985-3.708-2.5H9.4c0.537,0.928,1.527,1.498,2.6,1.5c1.656,0,3-1.344,3-3c-0.002-1.072-0.572-2.063-1.5-2.6V8.289c1.515,0.607,2.506,2.077,2.5,3.709c0.001,2.209-1.789,4.001-3.998,4.002H12z" />
</svg>
