<svg xmlns="http://www.w3.org/2000/svg" viewBox="0 0 12 12">
	<path d="M9.195,9c-0.866,0.918-2.086,1.5-3.445,1.5S3.171,9.918,2.304,9H1.011c1.038,1.508,2.774,2.5,4.739,2.5s3.701-0.992,4.739-2.5H9.195z" />
	<path d="M1.401,2h1.468C3.67,1.382,4.662,1,5.75,1s2.079,0.382,2.881,1H10.1C9.044,0.778,7.487,0,5.75,0S2.456,0.778,1.401,2z" />
	<polygon points="10.5,5 10.5,6 11,6 10.75,7 9.75,7 9.5,6 9.833,4 11,4 11,3 9,3 8.5,6 9,8 11.5,8 12,6 12,5" />
	<polygon points="7,3 6,7 5,3 4,3 5.25,8 6.75,8 8,3" />
	<polygon points="2.5,5 1.333,5 1,4.5 1.333,4 3,4 3,3 1,3 0,4.5 1,6 2.167,6 2.5,6.5 2.167,7 0.5,7 0.5,8 2.5,8 3.5,6.5" />
</svg>
